<svg width="22" height="22" viewBox="0 0 22 22" fill="none" xmlns="http://www.w3.org/2000/svg">
<g id="instagram 1" clip-path="url(#clip0_0_291)">
<g id="Group">
<g id="Group_2">
<path id="Vector" d="M18.162 0.619629H3.11503C1.39626 0.619629 -0.00244141 2.01833 -0.00244141 3.7371V18.7841C-0.00244141 20.5033 1.39626 21.9016 3.11503 21.9016H18.162C19.8812 21.9016 21.2795 20.5033 21.2795 18.7841V3.7371C21.2795 2.01833 19.8812 0.619629 18.162 0.619629ZM20.0325 18.7841C20.0325 19.8154 19.1933 20.6546 18.162 20.6546H3.11503C2.08377 20.6546 1.24455 19.8154 1.24455 18.7841V3.7371C1.24455 2.70584 2.08377 1.86662 3.11503 1.86662H18.162C19.1933 1.86662 20.0325 2.70584 20.0325 3.7371V18.7841Z" fill="white"/>
</g>
<g id="Group_3">
<path id="Vector_2" d="M17.4966 3.15576C16.8091 3.15576 16.2496 3.71524 16.2496 4.40275C16.2496 5.09026 16.8091 5.64974 17.4966 5.64974C18.1841 5.64974 18.7436 5.09026 18.7436 4.40275C18.7436 3.71524 18.1841 3.15576 17.4966 3.15576Z" fill="white"/>
</g>
<g id="Group_4">
<path id="Vector_3" d="M10.6383 5.65088C7.54411 5.65088 5.02686 8.16813 5.02686 11.2623C5.02686 14.3565 7.54411 16.8738 10.6383 16.8738C13.7325 16.8738 16.2498 14.3565 16.2498 11.2623C16.2498 8.16813 13.7325 5.65088 10.6383 5.65088ZM10.6383 15.6268C8.23162 15.6268 6.27384 13.669 6.27384 11.2623C6.27384 8.85564 8.23162 6.89787 10.6383 6.89787C13.045 6.89787 15.0028 8.85564 15.0028 11.2623C15.0028 13.669 13.045 15.6268 10.6383 15.6268Z" fill="white"/>
</g>
</g>
</g>
<defs>
<clipPath id="clip0_0_291">
<rect width="21.2819" height="21.2819" fill="white" transform="translate(-0.00256348 0.621582)"/>
</clipPath>
</defs>
</svg>
